<svg width="24" height="24" viewBox="0 0 24 24" fill="none" xmlns="http://www.w3.org/2000/svg">
  <path d="M17.61 12.25C17.59 9.89 19.58 8.66 19.67 8.6C18.55 6.96 16.83 6.74 16.25 6.71C14.83 6.58 13.48 7.54 12.78 7.54C12.08 7.54 10.98 6.74 9.77 6.77C8.23 6.79 6.81 7.66 6.01 9.01C4.35 11.87 5.63 15.97 7.21 18.27C8 19.45 8.92 20.75 10.17 20.7C11.37 20.65 11.82 19.93 13.34 19.93C14.86 19.93 15.26 20.7 16.52 20.68C17.8 20.65 18.57 19.5 19.34 18.31C20.26 16.97 20.63 15.67 20.65 15.6C20.62 15.58 17.63 14.44 17.61 12.25Z" fill="#111111"/>
  <path d="M14.91 5.43C15.55 4.66 15.98 3.61 15.87 2.56C14.95 2.59 13.84 3.17 13.18 3.93C12.6 4.59 12.09 5.66 12.23 6.69C13.24 6.77 14.27 6.2 14.91 5.43Z" fill="#111111"/>
</svg>
