<svg width="24" height="24" viewBox="0 0 24 24" fill="none" xmlns="http://www.w3.org/2000/svg">
  <path d="M21.35 11.1H12V14H17.29C17.06 15.2 16.36 16.21 15.31 16.87V19.25H18.51C20.38 17.52 21.46 14.97 21.46 11.97C21.46 11.27 21.4 10.59 21.35 11.1Z" fill="#4285F4"/>
  <path d="M12 22C14.7 22 16.96 21.1 18.61 19.55L15.41 17.17C14.51 17.77 13.36 18.12 12 18.12C9.38 18.12 7.16 16.35 6.37 13.97H3.07V16.57C4.71 20.31 8.05 22 12 22Z" fill="#34A853"/>
  <path d="M6.37 13.97C6.18 13.39 6.07 12.73 6.07 12C6.07 11.27 6.18 10.61 6.37 10.03V7.43H3.07C2.4 8.83 2 10.36 2 12C2 13.64 2.4 15.17 3.07 16.57L6.37 13.97Z" fill="#FBBC05"/>
  <path d="M12 5.88C13.36 5.88 14.51 6.33 15.41 6.93L18.61 4.55C16.96 2.99 14.7 2 12 2C8.05 2 4.71 4.31 3.07 8.05L6.37 10.65C7.16 8.27 9.38 5.88 12 5.88Z" fill="#EA4335"/>
</svg>
